<svg id="eRNbXYluDhW1" xmlns="http://www.w3.org/2000/svg" xmlns:xlink="http://www.w3.org/1999/xlink" viewBox="0 0 1080 1080" shape-rendering="geometricPrecision" text-rendering="geometricPrecision" project-id="16477086787642f3a306e71e289c53c6" export-id="73cdb77fff904d708148d35ea4b6bebc" cached="false"><path d="M407.884694,61.321184l-36.925565,60.362524l169.04087,100.946177c0,0-132.115305,44.973586-218.312478,174.967965s-60.650505,293.835448-60.650505,293.835448s77.483597-64.790839,124.443352-83.574741s157.439776,0,216.014875-9.391951s110.523564-46.268613,110.523564-46.268613-31.288674,122.941478-125.016336,192.324293-253.333046,107.510191-253.333046,107.510191l288.718386,174.628662l37.682531-61.141569L501.72098,869.40501c0,0,160.417069-62.579611,236.219544-184.5276s38.479807-287.27956,38.479807-287.27956-95.093504,99.905282-154.03252,119.223865-167.707901,0-214.503117,11.205258-74.215269,29.936047-74.215269,29.936047s28.213592-121.466327,122.741208-201.585835c94.647-80.220697,255.608174-119.094704,255.608174-119.094704s-304.134113-175.961297-304.134113-175.961297Z" transform="translate(1.178987 1.178987)" fill="#df00ff" stroke="#3f5787" stroke-width="0"/></svg>
